<svg width="200" height="200" viewBox="0 0 200 200" fill="none" xmlns="http://www.w3.org/2000/svg">
  <rect width="200" height="200" rx="20" fill="url(#grad2)"/>
  <defs>
    <linearGradient id="grad2" x1="0%" y1="0%" x2="100%" y2="100%">
      <stop offset="0%" style="stop-color:#E0F7FA;stop-opacity:1" />
      <stop offset="100%" style="stop-color:#B2EBF2;stop-opacity:1" />
    </linearGradient>
  </defs>

  <path d="M85 70 C80 60, 90 50, 100 55 C110 50, 120 60, 115 70 L105 110 C100 120, 90 120, 85 110 L95 70 Z" fill="#424242"/>
  <path d="M90 70 C95 75, 105 75, 110 70 L105 100 C100 110, 90 110, 85 100 L90 70 Z" fill="#424242"/>
  <circle cx="100" cy="40" r="12" fill="#424242"/>

  <path d="M85 110 L75 130 C70 145, 80 150, 90 145 L85 110 Z" fill="#424242"/>
  <path d="M105 110 L115 140 C120 150, 110 155, 100 150 L105 110 Z" fill="#424242"/>
  
  <path d="M85 70 L75 90 C70 100, 80 105, 90 100 L85 70 Z" fill="#424242"/>
  <path d="M115 70 L125 90 C130 100, 120 105, 110 100 L115 70 Z" fill="#424242"/>


  <rect x="130" y="145" width="20" height="25" fill="#C0C0C0"/> <rect x="155" y="130" width="20" height="40" fill="#FFD700"/> <rect x="105" y="115" width="20" height="55" fill="#CD7F32"/> <rect x="100" y="165" width="80" height="5" fill="#607D8B"/>
</svg>
