<svg viewBox="0 0 400 400" xmlns="http://www.w3.org/2000/svg">
  <!-- Fondo con degradado -->
  <defs>
    <linearGradient id="bgGradient" x1="0%" y1="0%" x2="100%" y2="100%">
      <stop offset="0%" style="stop-color:#b3e5fc;stop-opacity:1" />
      <stop offset="50%" style="stop-color:#81d4fa;stop-opacity:1" />
      <stop offset="100%" style="stop-color:#4fc3f7;stop-opacity:1" />
    </linearGradient>
    
    <linearGradient id="redGradient" x1="0%" y1="0%" x2="0%" y2="100%">
      <stop offset="0%" style="stop-color:#ef5350;stop-opacity:1" />
      <stop offset="100%" style="stop-color:#c62828;stop-opacity:1" />
    </linearGradient>
    
    <linearGradient id="yellowGradient" x1="0%" y1="0%" x2="0%" y2="100%">
      <stop offset="0%" style="stop-color:#ffeb3b;stop-opacity:1" />
      <stop offset="100%" style="stop-color:#f9a825;stop-opacity:1" />
    </linearGradient>
    
    <linearGradient id="greenGradient" x1="0%" y1="0%" x2="0%" y2="100%">
      <stop offset="0%" style="stop-color:#66bb6a;stop-opacity:1" />
      <stop offset="100%" style="stop-color:#2e7d32;stop-opacity:1" />
    </linearGradient>
  </defs>
  
  <!-- Fondo principal con degradado -->
  <rect width="400" height="400" rx="40" fill="url(#bgGradient)"/>
  
  <!-- Podio - Base -->
  <rect x="80" y="300" width="240" height="20" fill="#1f2136ff" opacity="0.8" rx="4"/>
  
  <!-- Tercer lugar (Bronce) -->
  <rect x="90" y="250" width="60" height="50" fill="#37474f" rx="4"/>
  <text x="120" y="280" font-size="20" font-weight="bold" fill="white" text-anchor="middle">3</text>
  <rect x="100" y="210" width="40" height="80" fill="#FF7D29" rx="4"/>
  
  <!-- Primer lugar (Oro) - El más alto -->
  <rect x="170" y="200" width="60" height="100" fill="#37474f" rx="4"/>
  <text x="200" y="260" font-size="24" font-weight="bold" fill="white" text-anchor="middle">1</text>
  <rect x="180" y="140" width="40" height="100" fill="#FFD93D" rx="4"/>
  
  <!-- Segundo lugar (Plata) -->
  <rect x="250" y="230" width="60" height="70" fill="#37474f" rx="4"/>
  <text x="280" y="220" font-size="22" font-weight="bold" fill="white" text-anchor="middle">2</text>
  <rect x="260" y="180" width="40" height="90" fill="#DCDCDC" rx="4"/>
  
  <!-- Efectos de brillo en las barras -->
  <rect x="180" y="140" width="15" height="100" fill="white" opacity="0.2" rx="4"/>
  <rect x="260" y="180" width="15" height="90" fill="white" opacity="0.2" rx="4"/>
  <rect x="100" y="210" width="15" height="80" fill="white" opacity="0.2" rx="4"/>
</svg>
