<svg width="200" height="200" viewBox="0 0 200 200" fill="none" xmlns="http://www.w3.org/2000/svg">
  <rect width="200" height="200" rx="20" fill="url(#grad1)"/>
  <defs>
    <linearGradient id="grad1" x1="0%" y1="0%" x2="100%" y2="100%">
      <stop offset="0%" style="stop-color:#E0F7FA;stop-opacity:1" />
      <stop offset="100%" style="stop-color:#B2EBF2;stop-opacity:1" />
    </linearGradient>
  </defs>

  <path d="M100 40 L90 70 L110 70 L100 40 Z" fill="#424242"/> <path d="M98 70 L95 110 L105 110 L102 70 Z" fill="#424242"/> <path d="M95 80 L80 95 L85 100 L100 85 Z" fill="#424242"/> <path d="M105 80 L120 95 L115 100 L100 85 Z" fill="#424242"/> <path d="M95 110 L80 140 L85 145 L100 115 Z" fill="#424242"/> <path d="M105 110 L120 140 L115 145 L100 115 Z" fill="#424242"/> <rect x="130" y="140" width="15" height="20" fill="#4CAF50"/> <rect x="150" y="120" width="15" height="40" fill="#2196F3"/> <rect x="170" y="90" width="15" height="70" fill="#FFC107"/> <rect x="120" y="160" width="65" height="5" fill="#607D8B"/> <rect x="165" y="150" width="5" height="10" fill="#9E9E9E"/> <rect x="145" y="155" width="5" height="5" fill="#BDBDBD"/> </svg>
